<?xml version="1.0" encoding="UTF-8"?>
<svg width="30px" height="30px" viewBox="0 0 30 30" version="1.1" xmlns="http://www.w3.org/2000/svg" xmlns:xlink="http://www.w3.org/1999/xlink">
    <!-- Generator: Sketch 48.2 (47327) - http://www.bohemiancoding.com/sketch -->
    <title>icon-points</title>
    <desc>Created with Sketch.</desc>
    <defs></defs>
    <g id="iconography" stroke="none" stroke-width="1" fill="none" fill-rule="evenodd" transform="translate(-458.000000, -1620.000000)">
        <g id="Group" transform="translate(360.000000, 127.000000)" fill="#003050">
            <g id="Group-29" transform="translate(50.000000, 1347.000000)">
                <g id="Group-28" transform="translate(23.000000, 146.000000)">
                    <g id="icon-points" transform="translate(25.000000, 0.000000)">
                        <path d="M13.0375722,12.3503777 L15.0012533,8.27196314 L17.0823096,12.6163579 L21.7875538,13.3078635 L18.386377,16.7090403 L18.4282795,16.9785999 L19.1933281,21.4691024 L14.9999544,19.2285995 L10.8065807,21.4691024 L10.9993544,20.3376047 L11.5703237,16.9866118 L11.6135056,16.709014 L8.21280958,13.308318 L12.9077915,12.6161092 L13.0375722,12.3503777 Z M14.0498299,12.8412438 L13.6584732,13.6425933 L10.5904167,14.0949349 L12.8129435,16.3174617 L12.76904,16.599698 L12.6806492,17.167544 L12.301148,19.395051 L14.9999544,17.9530895 L17.6987828,19.3950628 L17.3179541,17.1595322 L17.1869653,16.3174617 L19.4090375,14.0953895 L16.326367,13.6423453 L14.9986538,10.8706227 L14.0498299,12.8412438 Z M14.9999544,9.37490845 C14.9198664,9.37490845 14.8556111,9.39257865 14.7956397,9.42922782 C14.7396953,9.46341607 14.7025058,9.50473776 14.6732675,9.56643759 L13.1004604,12.8340798 L12.8045958,12.877296 L9.48505466,13.3621686 C9.42313772,13.3714561 9.37029786,13.3956744 9.31648575,13.4410783 C9.25763911,13.4907302 9.21948715,13.5446406 9.20399866,13.5848754 C9.18452565,13.64654 9.18228579,13.7040298 9.19704232,13.7679748 C9.21028282,13.8253503 9.23831052,13.8749377 9.28928962,13.9259168 L11.919775,16.5564022 L11.8723918,16.8417546 L11.3092324,20.2313731 C11.2990929,20.2820706 11.304048,20.3250146 11.3270995,20.3765414 C11.3563537,20.4419333 11.3967908,20.491092 11.4534511,20.5310929 C11.486577,20.554281 11.5152246,20.5682555 11.5404447,20.5754612 C11.5760207,20.5856258 11.6173827,20.5911407 11.6658312,20.5911407 C11.6991823,20.5911407 11.7329199,20.5873921 11.7677414,20.579654 C11.7796464,20.5770084 11.790647,20.5724788 11.835338,20.5459996 L15.0005272,18.8479368 L15.2667628,18.9913827 L18.1593845,20.5499604 C18.1879212,20.5658142 18.2119653,20.5751646 18.2321674,20.579654 C18.2669889,20.5873921 18.3007265,20.5911407 18.3340776,20.5911407 C18.3748519,20.5911407 18.4163422,20.5854829 18.4597708,20.5736388 C18.4874113,20.5661005 18.5156715,20.5526433 18.5446459,20.5323664 C18.603118,20.491092 18.6435551,20.4419333 18.6728093,20.3765414 C18.6958608,20.3250146 18.7008159,20.2820706 18.6873512,20.2132001 L18.0801338,16.5564022 L20.7106192,13.9259168 C20.7615983,13.8749377 20.789626,13.8253503 20.8028665,13.7679748 C20.817623,13.7040298 20.8153832,13.64654 20.8013801,13.6013111 C20.777474,13.533008 20.7427484,13.4831844 20.6914546,13.4415081 C20.6364496,13.3968166 20.580722,13.3720487 20.5169955,13.3624856 L16.8994484,12.8340798 L16.7697693,12.5646603 L15.3251327,9.56327811 C15.297403,9.50473776 15.2602135,9.46341607 15.2042691,9.42922782 C15.1442977,9.39257865 15.0800424,9.37490845 14.9999544,9.37490845 Z M13.6580711,9.08168097 C13.7796313,8.82505386 13.9663732,8.61756287 14.2090084,8.46928576 C14.4476168,8.32346956 14.7151117,8.24990845 14.9999544,8.24990845 C15.2847971,8.24990845 15.552292,8.32346956 15.7909004,8.46928576 C16.0335356,8.61756287 16.2202775,8.82505386 16.3403291,9.07852149 L17.6537782,11.8073252 L20.6817372,12.2496152 C20.9476245,12.2894983 21.1904721,12.3974305 21.4008713,12.5683799 C21.6149817,12.7423445 21.7710125,12.9662149 21.8686906,13.2461026 C21.9487442,13.4996056 21.958945,13.7614253 21.8990566,14.0209417 C21.8376522,14.2870275 21.7039516,14.5235747 21.5061143,14.721412 L19.2846815,16.9428448 L19.7938296,20.0107424 C19.8500412,20.2918002 19.8176743,20.5723126 19.6997298,20.8359533 C19.5879881,21.0857289 19.4169344,21.2936766 19.1916028,21.4527288 C19.0565114,21.5472928 18.9106027,21.6167731 18.7557779,21.6589981 C18.616741,21.6969172 18.4757688,21.7161407 18.3340776,21.7161407 C18.2181389,21.7161407 18.1025889,21.7033018 17.9881206,21.6778644 C17.8590329,21.6491783 17.7337893,21.6004724 17.6194019,21.5368703 L14.9992606,20.1251563 L12.3993821,21.5186729 C12.2791663,21.5938078 12.149173,21.6473345 12.0117882,21.6778644 C11.8973199,21.7033018 11.7817699,21.7161407 11.6658312,21.7161407 C11.5152265,21.7161407 11.369979,21.6967744 11.2313835,21.6571757 C11.0824321,21.6146181 10.9410577,21.545655 10.8064943,21.4514553 C10.5829744,21.2936766 10.4119207,21.0857289 10.300179,20.8359533 C10.1822345,20.5723126 10.1498676,20.2918002 10.202754,20.0289154 L10.7152049,16.9428223 L8.49379449,14.721412 C8.29595719,14.5235747 8.16225665,14.2870275 8.10085222,14.0209417 C8.04096383,13.7614253 8.0511646,13.4996056 8.13979041,13.2210298 C8.23184399,12.97117 8.38444842,12.7555333 8.59100595,12.5812504 C8.80259801,12.4027196 9.04833337,12.2900909 9.32031295,12.2492982 L12.346132,11.8073246 L13.6580711,9.08168097 Z" id="Star---simple-line-icons-Copy" fill-rule="nonzero"></path>
                        <path d="M15,0 C17.0703229,0 19.0185456,0.390621094 20.8447266,1.171875 C22.6709076,1.95312891 24.2626885,3.02245415 25.6201172,4.37988281 C26.9775458,5.73731147 28.0468711,7.32909243 28.828125,9.15527344 C29.6093789,10.9814544 30,12.9296771 30,15 C30,17.0703229 29.6093789,19.0185456 28.828125,20.8447266 C28.0468711,22.6709076 26.9775458,24.2626885 25.6201172,25.6201172 C24.2626885,26.9775458 22.6709076,28.0468711 20.8447266,28.828125 C19.0185456,29.6093789 17.0703229,30 15,30 C12.9296771,30 10.9814544,29.6093789 9.15527344,28.828125 C7.32909243,28.0468711 5.73731147,26.9775458 4.37988281,25.6201172 C3.02245415,24.2626885 1.95312891,22.6709076 1.171875,20.8447266 C0.390621094,19.0185456 0,17.0703229 0,15 C0,12.9296771 0.390621094,10.9814544 1.171875,9.15527344 C1.95312891,7.32909243 3.02245415,5.73731147 4.37988281,4.37988281 C5.73731147,3.02245415 7.32909243,1.95312891 9.15527344,1.171875 C10.9814544,0.390621094 12.9296771,0 15,0 Z M15,28.1542969 C16.8164153,28.1542969 18.5204999,27.8076207 20.1123047,27.1142578 C21.7041095,26.420895 23.0908144,25.4785216 24.2724609,24.2871094 C25.4541075,23.0956972 26.3915981,21.7041095 27.0849609,20.1123047 C27.7783238,18.5204999 28.125,16.8164153 28.125,15 C28.125,13.1835847 27.7783238,11.4795001 27.0849609,9.88769531 C26.3915981,8.29589048 25.4541075,6.9091856 24.2724609,5.72753906 C23.0908144,4.54589253 21.7041095,3.6084019 20.1123047,2.91503906 C18.5204999,2.22167622 16.8164153,1.875 15,1.875 C13.1835847,1.875 11.4795001,2.22167622 9.88769531,2.91503906 C8.29589048,3.6084019 6.9091856,4.54589253 5.72753906,5.72753906 C4.54589253,6.9091856 3.6084019,8.29589048 2.91503906,9.88769531 C2.22167622,11.4795001 1.875,13.1835847 1.875,15 C1.875,16.8164153 2.22167622,18.5204999 2.91503906,20.1123047 C3.6084019,21.7041095 4.54589253,23.0956972 5.72753906,24.2871094 C6.9091856,25.4785216 8.29589048,26.420895 9.88769531,27.1142578 C11.4795001,27.8076207 13.1835847,28.1542969 15,28.1542969 Z" id="Close---simple-line-icons"></path>
                    </g>
                </g>
            </g>
        </g>
    </g>
</svg>