<svg id="Layer_1" data-name="Layer 1" xmlns="http://www.w3.org/2000/svg" viewBox="0 0 48 48"><defs><style>.cls-1{fill:#fff;}</style></defs><title>DoctorCheckup</title><path class="cls-1" d="M40.82,27a5.69,5.69,0,0,0-5.59,4.7l-.09,0H17.79V22.18a2.65,2.65,0,0,0,1.33-1l9.75-15.2a2.67,2.67,0,0,0-2.25-4.11H21.7V1a1,1,0,0,0-2,0V4.64a1,1,0,1,0,2,0V3.82h4.92a.67.67,0,0,1,.56,1l-9.75,15.2a.66.66,0,0,1-.56.31h0a.66.66,0,0,1-.56-.31L6.55,4.85a.67.67,0,0,1,.56-1h4.77v.82a1,1,0,0,0,2,0V1a1,1,0,0,0-2,0v.82H7.11A2.67,2.67,0,0,0,4.87,5.93l9.75,15.2a2.64,2.64,0,0,0,1.17,1v9.6H9.64a8.14,8.14,0,1,0,8.14,8.14V33.71H35.13l.09,0A5.68,5.68,0,1,0,40.82,27Zm-25,12.83a6.14,6.14,0,1,1-6.14-6.14h6.14Zm25-4.22a2.92,2.92,0,1,1,2.92-2.92A2.92,2.92,0,0,1,40.82,35.64Z"/></svg>