<svg id="Layer_1" data-name="Layer 1" xmlns="http://www.w3.org/2000/svg" viewBox="0 0 48 48"><defs><style>.cls-1{fill:#fff;}</style></defs><title>Sleep</title><path class="cls-1" d="M47,23.32V42.51H42.13v-5.4H5.87v5.4H1V14.21H5.87V31.54H42.13V23.32Zm-8.75,1.61a5.78,5.78,0,0,0-5.78-5.78H19.83v8.38H38.25ZM12.67,18.4a3.45,3.45,0,1,0,3.45,3.45A3.45,3.45,0,0,0,12.67,18.4ZM14.77,15l5.53-2.14A1,1,0,1,0,19.58,11l-3.25,1.25,2.42-5.32a1,1,0,0,0-1.27-1.35L12,7.7a1,1,0,0,0,.72,1.87l3.24-1.26L13.5,13.63A1,1,0,0,0,14.77,15ZM16.22,28.8a1,1,0,0,0-1-1H9.48a1,1,0,0,0,0,2h5.74A1,1,0,0,0,16.22,28.8Z"/></svg>