<svg id="Layer_1" data-name="Layer 1" xmlns="http://www.w3.org/2000/svg" viewBox="0 0 48 48"><defs><style>.cls-1{fill:#fff;}</style></defs><title>Breakfast</title><path class="cls-1" d="M9,24a15,15,0,0,1,.64-4.32L.65,23.06a1,1,0,0,0,0,1.87l6.43,2.43A3,3,0,0,1,9,25.18C9,24.79,9,24.4,9,24Z"/><path class="cls-1" d="M22,27a1,1,0,0,0-1,1v6a5,5,0,0,1-2,4V28a1,1,0,0,0-2,0V38.9a5,5,0,0,1-2,0V28a1,1,0,0,0-2,0V38a5,5,0,0,1-2-4V28a1,1,0,0,0-2,0v6a7,7,0,0,0,6,6.92V47a1,1,0,0,0,2,0V40.92A7,7,0,0,0,23,34V28A1,1,0,0,0,22,27Z"/><path class="cls-1" d="M10.76,16.86a15.15,15.15,0,0,1,6.11-6.11L8.15,6.83A1,1,0,0,0,6.83,8.15Z"/><path class="cls-1" d="M28.32,9.59,24.94.65a1,1,0,0,0-1.87,0L19.68,9.59a14.92,14.92,0,0,1,8.64,0Z"/><path class="cls-1" d="M37.24,16.86l3.93-8.72a1,1,0,0,0-1.32-1.32l-8.72,3.93A15.15,15.15,0,0,1,37.24,16.86Z"/><path class="cls-1" d="M32,25c-3.86,0-7,4-7,9,0,4.52,2.61,8.27,6,8.9V47a1,1,0,0,0,2,0V42.9c3.39-.63,6-4.37,6-8.9C39,29,35.86,25,32,25Zm0,16c-2.76,0-5-3.14-5-7s2.24-7,5-7,5,3.14,5,7S34.76,41,32,41Z"/><path class="cls-1" d="M32,23a7.85,7.85,0,0,1,5,1.86c0-.29,0-.57,0-.86A13,13,0,0,0,11,24c0,.4,0,.79.06,1.18a3,3,0,0,1,1,.58,3,3,0,0,1,4,0,3,3,0,0,1,4,0,3,3,0,0,1,4.9,1.5A8.54,8.54,0,0,1,32,23Zm-6-7.53a1,1,0,0,1,1-1A6.54,6.54,0,0,1,33.53,21a1,1,0,0,1-2,0A4.54,4.54,0,0,0,27,16.47,1,1,0,0,1,26,15.47Z"/><path class="cls-1" d="M47.35,23.06l-8.95-3.38a14.77,14.77,0,0,1,.37,7.1,11.27,11.27,0,0,1,.7,1.13l7.88-3a1,1,0,0,0,0-1.87Z"/><path class="cls-1" d="M32,29c-1.42,0-3,2.14-3,5s1.58,5,3,5,3-2.14,3-5S33.42,29,32,29Z"/></svg>