<svg id="Layer_1" data-name="Layer 1" xmlns="http://www.w3.org/2000/svg" viewBox="0 0 48 48"><defs><style>.cls-1{fill:#fff;}</style></defs><title>ExerciseMinutes</title><path class="cls-1" d="M38.16,9.43l1.62-1.62A3.2,3.2,0,1,0,38.37,6.4l-1.8,1.8a21.79,21.79,0,0,0-8.45-3.59V2H29.4a1,1,0,0,0,0-2H18.6a1,1,0,0,0,0,2h1.29V4.61A21.91,21.91,0,1,0,38.16,9.43Zm2.2-5.27A1.17,1.17,0,1,1,40,5,1.17,1.17,0,0,1,40.37,4.16ZM21.88,2h4.23V4.32c-.7-.07-1.4-.1-2.12-.1s-1.42,0-2.12.1ZM24,44.08a18,18,0,1,1,18-18A18,18,0,0,1,24,44.08Zm0-33.93a16,16,0,1,0,16,16A16,16,0,0,0,24,10.14Zm-1,2.57a1,1,0,0,1,2,0v1.47a1,1,0,1,1-2,0ZM11.82,27.37H10.35a1,1,0,0,1,0-2h1.47a1,1,0,1,1,0,2Zm4.28,8.32-1,1a1,1,0,0,1-1.41-1.41l1-1a1,1,0,0,1,1.41,1.41Zm0-17.23a1,1,0,0,1-1.41,0l-1-1A1,1,0,0,1,15.05,16l1,1A1,1,0,0,1,16.09,18.46ZM25,40a1,1,0,0,1-2,0V38.55a1,1,0,0,1,2,0ZM24,28.34a2.23,2.23,0,0,1-1-4.23V18a1,1,0,0,1,2,0v6.08a2.23,2.23,0,0,1-1,4.23Zm10.36,8.39a1,1,0,0,1-1.41,0l-1-1a1,1,0,1,1,1.41-1.41l1,1A1,1,0,0,1,34.36,36.73Zm0-19.31-1,1A1,1,0,1,1,31.91,17l1-1a1,1,0,0,1,1.41,1.41Zm3.29,9.95H36.18a1,1,0,0,1,0-2h1.47a1,1,0,0,1,0,2Z"/></svg>