<svg id="Layer_1" data-name="Layer 1" xmlns="http://www.w3.org/2000/svg" viewBox="0 0 48 48"><defs><style>.cls-1{fill:#fff;}</style></defs><title>FlexArmHang</title><path class="cls-1" d="M20.13,8.69A3.87,3.87,0,1,1,24,12.56,3.87,3.87,0,0,1,20.13,8.69ZM42.7,2a1,1,0,0,1-1,1H38.14C37.85,9.19,34.25,18,29.57,19.09l-.35,8L32,36.93l-4,4.68L25.51,38.7l-.19-.23,2-2.36L26,30.21H22l-1.39,5.9L24,40h0l2.71,3.14h0L28,44.63a2.06,2.06,0,1,1-3.19,2.62L16,36.93l2.79-9.87-.35-8C13.75,18,10.15,9.19,9.86,3H6.3a1,1,0,0,1,0-2h3.9a2.18,2.18,0,0,1,3.63,0H34.16A2.18,2.18,0,0,1,37.8,1H41.7A1,1,0,0,1,42.7,2ZM33.77,3H14.23c.28,4.7,2.92,12,6.12,12L24,15l3.65-.08C30.85,14.95,33.49,7.68,33.77,3ZM20.3,47.53a2,2,0,0,0,2.28.21L20,44.69A2.06,2.06,0,0,0,20.3,47.53Z"/></svg>