<svg id="Layer_1" data-name="Layer 1" xmlns="http://www.w3.org/2000/svg" viewBox="0 0 48 48"><defs><style>.cls-1{fill:#fff;}</style></defs><title>StandFromDesk</title><path class="cls-1" d="M39.56,12.57a3.78,3.78,0,1,1-3.78-3.78A3.78,3.78,0,0,1,39.56,12.57ZM39.51,1.68A2.14,2.14,0,0,0,37,.05,20.72,20.72,0,0,0,23.07,11.36L8.61,45a2.14,2.14,0,1,0,3.93,1.69l7-16.23,7,16.23A2.14,2.14,0,0,0,30.42,45L23.5,28.92h0l-.85-2h0l3.88-4.44h0l1.74-2,2.94,4.17-3.91-.17L24.88,27.3l-.22.26,10,.69h.15a2.14,2.14,0,0,0,1.75-3.37L27.53,12a15.65,15.65,0,0,1,10.35-7.8A2.14,2.14,0,0,0,39.51,1.68Z"/></svg>