<svg id="Layer_1" data-name="Layer 1" xmlns="http://www.w3.org/2000/svg" viewBox="0 0 48 48"><defs><style>.cls-1{fill:#fff;}</style></defs><title>NoSoda</title><path class="cls-1" d="M24,0A24,24,0,1,0,48,24,24,24,0,0,0,24,0ZM2,24A21.91,21.91,0,0,1,7.76,9.18l8.6,8.6,4.8,4.8,2,2,6.1,6.1.47.47,2,2h0l6.14,6.14,1,1A22,22,0,0,1,2,24ZM40.24,38.83l-1.32-1.32L26,24.57l-1.28-1.28L17,15.62l-1.11-1.11L9.17,7.76A22,22,0,0,1,40.24,38.83ZM17.94,24.57h2.39l4.57,4.57h-7c0-.06,0-.11,0-.17V24.57Zm12.06,0h.06v1.26l-1.25-1.25ZM17.08,22a3.56,3.56,0,0,1-.71-1.39l2,2h-.39a1,1,0,0,0-.42.1A3.55,3.55,0,0,0,17.08,22Zm9.5-13.78H21.42V6h5.17Zm.31,22.92L31.77,36v3.44A2.55,2.55,0,0,1,29.21,42H18.78a2.55,2.55,0,0,1-2.55-2.55V33.6a3.57,3.57,0,0,1,.85-2.31h0a3.56,3.56,0,0,0,.26-.37,1,1,0,0,0,.6.22Zm4.87-12v.52A3.57,3.57,0,0,1,30.91,22a3.56,3.56,0,0,0-.45.7,1,1,0,0,0-.46-.12H26.81l-8.68-8.68a8.3,8.3,0,0,1,3.28-2.43V10.22h5.17v1.24A8.32,8.32,0,0,1,31.77,19.17Z"/></svg>