<svg id="Layer_1" data-name="Layer 1" xmlns="http://www.w3.org/2000/svg" viewBox="0 0 48 48"><defs><style>.cls-1{fill:#fff;}</style></defs><title>DistanceRunWalk</title><path class="cls-1" d="M45.8,23l-7.63,5.1a2.71,2.71,0,0,1-4-1.15L31.9,21.82l-3.82,7.1,4,1.84a2.71,2.71,0,0,1,1.45,3.31L30.15,44.52a2.71,2.71,0,0,1-2.58,1.87A2.75,2.75,0,0,1,26.24,46,2.8,2.8,0,0,1,25,42.73l2.62-8s-3.69-1.79-5.84-3a1.82,1.82,0,0,0-2.44.68l-2.39,4a2.71,2.71,0,0,1-2.34,1.33c-.19,0-11.51-2.4-11.51-2.4a2.72,2.72,0,0,1-1.77-4,2.75,2.75,0,0,1,3-1.24l9,1.91,10-17.22h-4.8L17,20a2.71,2.71,0,0,1-2.6,1.94,2.71,2.71,0,0,1-2.56-3.61l2.1-7a2.71,2.71,0,0,1,2.6-1.93H26.82c1-.14,7.9,6,8.34,6.41l2.68,6,4.84-3.24a2.8,2.8,0,0,1,3.55.28A2.72,2.72,0,0,1,45.8,23ZM37.61,1.6a4.93,4.93,0,1,0,4.93,4.93A4.93,4.93,0,0,0,37.61,1.6Z"/></svg>