<svg id="Layer_1" data-name="Layer 1" xmlns="http://www.w3.org/2000/svg" viewBox="0 0 48 48"><defs><style>.cls-1{fill:#fff;}</style></defs><title>FruitsVeggies</title><path class="cls-1" d="M22.08,45.09a9.68,9.68,0,0,0-5.48-.35l11.2-4.86,7.49-3.25c-1.88,5.44-5.85,9-10.32,9A8.37,8.37,0,0,1,22.08,45.09ZM39.9,25,46,20.67A1,1,0,1,0,44.87,19l-6.12,4.32Zm-23.67-10,0,0a14.41,14.41,0,0,1-2.8-.79,8.22,8.22,0,0,0-.86,0c-6.3,0-11.43,7.07-11.43,15.77,0,6,2.45,11.4,6.31,14.08L29,20.82l.08-.08a5.88,5.88,0,0,1,4.4-1.36C31.34,16,28.27,14.08,25,14.08a8.5,8.5,0,0,0-3.7.86A5.8,5.8,0,0,1,16.23,14.94ZM6.24,1.66a12.57,12.57,0,0,0,7.68,10.53,10.6,10.6,0,0,1,2.84.81c.31,0,.62.09.94.12A12.57,12.57,0,0,0,6.24,1.66ZM19.7,13.3c0-1.31.48-4.32,3.76-7.77A1,1,0,1,0,22,4.15a16.86,16.86,0,0,0-3.26,4.78A14.47,14.47,0,0,1,19.7,13.3ZM36,23a3.86,3.86,0,0,0-1-.93l0,0a3.86,3.86,0,0,0-2.88-.6l-.12,0a3.83,3.83,0,0,0-.46.13l-.26.1-.33.16a3.93,3.93,0,0,0-.58.39L7.89,46.34l2.1-.91h0L36.43,34l1.75-.76a3.85,3.85,0,0,0,1.17-5.53Zm10.79.52A1,1,0,0,0,45.51,23l-5.45,2.27L41,26.52c.09.13.17.26.25.39l5.06-2.11A1,1,0,0,0,46.82,23.5Zm-9.16-1.68.92,1.3,4-4.37a1,1,0,1,0-1.48-1.34l-3.69,4.07C37.47,21.59,37.58,21.7,37.67,21.82Z"/></svg>