<svg id="Layer_1" data-name="Layer 1" xmlns="http://www.w3.org/2000/svg" viewBox="0 0 48 48"><defs><style>.cls-1{fill:#fff;}</style></defs><title>FinancialFitness</title><path class="cls-1" d="M40,34.5v3a1,1,0,0,1-1,1H27.17a14.08,14.08,0,0,0,4.93-5H39A1,1,0,0,1,40,34.5Zm-1-9H33.95c0,.33.05.66.05,1a13.94,13.94,0,0,1-.59,4H39a1,1,0,0,0,1-1v-3A1,1,0,0,0,39,25.5Zm0-8H30.71a14,14,0,0,1,2.7,5H39a1,1,0,0,0,1-1v-3A1,1,0,0,0,39,17.5Zm0-8H20a1,1,0,0,0-1,1v2.05c.33,0,.66-.05,1-.05a13.89,13.89,0,0,1,7.17,2H39a1,1,0,0,0,1-1v-3A1,1,0,0,0,39,9.5Zm-7,17a12,12,0,1,1-12-12A12,12,0,0,1,32,26.5ZM18,24c0-.83.9-1.5,2-1.5s2,.67,2,1.5a1,1,0,1,0,2,0,3.62,3.62,0,0,0-3-3.38.92.92,0,0,0,0-.12v-1a1,1,0,0,0-2,0v1a.92.92,0,0,0,0,.12A3.62,3.62,0,0,0,16,24a3.78,3.78,0,0,0,4,3.5c1.1,0,2,.67,2,1.5s-.9,1.5-2,1.5-2-.67-2-1.5a1,1,0,0,0-2,0,3.61,3.61,0,0,0,3,3.38V33.5a1,1,0,0,0,2,0V32.38A3.61,3.61,0,0,0,24,29a3.78,3.78,0,0,0-4-3.5C18.9,25.5,18,24.83,18,24Z"/></svg>