<svg id="Layer_1" data-name="Layer 1" xmlns="http://www.w3.org/2000/svg" viewBox="0 0 48 48"><defs><style>.cls-1{fill:#fff;}</style></defs><title>Meditation</title><path class="cls-1" d="M19.16,7.49A4.84,4.84,0,1,1,24,12.33,4.84,4.84,0,0,1,19.16,7.49ZM44.93,27c-9.83-1.43-13.44-8.35-13.84-9.19a2.42,2.42,0,0,0-2.24-1.52H19.16A2.42,2.42,0,0,0,17,17.78h0v0c-.2.43-3.75,7.76-13.86,9.23a2.42,2.42,0,0,0,.34,4.81l.35,0a23.78,23.78,0,0,0,13-6V36.22L6.12,38.15a3.63,3.63,0,0,0,.46,7.2h12.7a3.44,3.44,0,0,1,0-3.14H13.12a1,1,0,1,1,0-2H33.65a1,1,0,1,1,0,2H22.48a1.57,1.57,0,1,0,0,3.14H40.62a3.63,3.63,0,0,0,.46-7.2l-9.82-1.78V25.82a23.78,23.78,0,0,0,13,6l.35,0A2.42,2.42,0,0,0,44.93,27Z"/></svg>