<svg id="Layer_1" data-name="Layer 1" xmlns="http://www.w3.org/2000/svg" viewBox="0 0 48 48"><defs><style>.cls-1{fill:#fff;}</style></defs><title>Hydrate</title><path class="cls-1" d="M19.41,3.72V.5h9.18V3.72H19.41ZM29.79,21.53a4.6,4.6,0,0,1-6.5,0,2.6,2.6,0,0,0-3.67,0,4.59,4.59,0,0,1-5.39.79v3.18a1,1,0,0,1,.31.2,2.6,2.6,0,0,0,3.67,0,4.6,4.6,0,0,1,6.5,0,2.6,2.6,0,0,0,3.67,0,4.53,4.53,0,0,1,5.39-.79V21.73a1,1,0,0,1-.31-.2A2.66,2.66,0,0,0,29.79,21.53ZM18.21,31.3a4.6,4.6,0,0,1,6.5,0,2.6,2.6,0,0,0,3.67,0,4.53,4.53,0,0,1,5.39-.79V27.33a1,1,0,0,1-.31-.2,2.66,2.66,0,0,0-3.67,0,4.6,4.6,0,0,1-6.5,0,2.6,2.6,0,0,0-3.67,0,4.59,4.59,0,0,1-5.39.79V31.1a1,1,0,0,1,.31.2A2.6,2.6,0,0,0,18.21,31.3ZM14.54,20.12a2.6,2.6,0,0,0,3.67,0,4.6,4.6,0,0,1,6.5,0,2.6,2.6,0,0,0,3.67,0,4.53,4.53,0,0,1,5.39-.79V16.67A8.33,8.33,0,0,0,28.59,9V5.72H19.41V9a8.33,8.33,0,0,0-5.18,7.71v3.24A1,1,0,0,1,14.54,20.12Zm18.93,12.6a2.66,2.66,0,0,0-3.67,0,4.6,4.6,0,0,1-6.5,0,2.6,2.6,0,0,0-3.67,0,4.59,4.59,0,0,1-5.39.79V44.95a2.55,2.55,0,0,0,2.55,2.55H31.22a2.55,2.55,0,0,0,2.55-2.55v-12A1,1,0,0,1,33.46,32.72Z"/></svg>