<svg id="Layer_1" data-name="Layer 1" xmlns="http://www.w3.org/2000/svg" viewBox="0 0 48 48"><defs><style>.cls-1{fill:#fff;}</style></defs><title>12MinRunWalk</title><path class="cls-1" d="M13.39,10l1.88-7.51A2,2,0,0,1,17.22,1h8.48a2,2,0,0,1,1.94,1.51L29.52,10a16,16,0,0,0-16.12,0Zm8.06,28.13A14.15,14.15,0,1,1,35.61,24,14.17,14.17,0,0,1,21.46,38.16ZM31.58,24a1,1,0,0,0,1,1h.88a1,1,0,0,0,0-2h-.88A1,1,0,0,0,31.58,24ZM11.34,24a1,1,0,0,0-1-1H9.46a1,1,0,0,0,0,2h.88A1,1,0,0,0,11.34,24Zm3,7.16a1,1,0,0,0-1.41,0l-.62.62a1,1,0,1,0,1.41,1.41l.62-.62A1,1,0,0,0,14.3,31.16Zm0-15.73-.62-.62a1,1,0,1,0-1.41,1.41l.62.62a1,1,0,0,0,1.41-1.41Zm8.16,19.69a1,1,0,0,0-2,0V36a1,1,0,0,0,2,0ZM23.88,24a2.43,2.43,0,0,0-1.46-2.22,1,1,0,0,0,0-.16V12a1,1,0,1,0-2,0v9.61a1,1,0,0,0,0,.16A2.43,2.43,0,1,0,23.88,24Zm6.77,7.78L30,31.16a1,1,0,0,0-1.41,1.42l.62.62a1,1,0,0,0,1.41-1.42Zm0-17a1,1,0,0,0-1.42,0l-.62.62A1,1,0,0,0,30,16.85l.62-.62A1,1,0,0,0,30.65,14.81ZM21.46,40.16A16,16,0,0,1,13.39,38l1.88,7.51A2,2,0,0,0,17.22,47h8.48a2,2,0,0,0,1.94-1.51L29.52,38A16,16,0,0,1,21.46,40.16ZM38.7,20.58H37.24A15.87,15.87,0,0,1,37,28.47H38.7a2,2,0,0,0,2-2V22.58A2,2,0,0,0,38.7,20.58Z"/></svg>