<svg id="Layer_1" data-name="Layer 1" xmlns="http://www.w3.org/2000/svg" viewBox="0 0 48 48"><defs><style>.cls-1{fill:#fff;}</style></defs><title>ManageStress</title><path class="cls-1" d="M33.23,4a12.45,12.45,0,0,1,1.4,1.86l.05.1c.18.29.34.58.49.89l.12.26c.12.26.24.51.34.78s.09.28.14.42.16.44.23.67.09.37.13.56.1.38.14.57.08.5.11.75,0,.27.06.41q.06.59.06,1.2A12.51,12.51,0,0,1,24,25a10.5,10.5,0,0,0-1.07,20.95h0l.35,0c.24,0,.48,0,.72,0A22,22,0,0,0,33.23,4ZM24,38.49a3,3,0,1,1,3-3A3,3,0,0,1,24,38.49ZM13.32,42c-.18-.29-.34-.58-.5-.89l-.11-.24c-.12-.26-.25-.52-.35-.79s-.09-.27-.14-.4-.16-.45-.23-.68-.09-.37-.13-.56-.1-.38-.14-.57-.07-.49-.1-.73,0-.29-.06-.43q-.06-.59-.06-1.2A12.51,12.51,0,0,1,24,23,10.5,10.5,0,0,0,25.08,2.05h0l-.37,0c-.23,0-.47,0-.71,0a22,22,0,0,0-9.23,42,12.46,12.46,0,0,1-1.4-1.86ZM24,9.57a3,3,0,1,1-3,3A3,3,0,0,1,24,9.57Z"/></svg>