<svg id="Layer_1" data-name="Layer 1" xmlns="http://www.w3.org/2000/svg" viewBox="0 0 48 48"><defs><style>.cls-1{fill:#fff;}</style></defs><title>Volunteer</title><path class="cls-1" d="M34.5,7.45C34.5,14.76,24,22,24,22S13.5,14.76,13.5,7.45c0-3.75,2-6.5,4.93-6.5C21.7,1,22.91,3.81,24,5.15,25.09,3.81,26.3,1,29.58,1,32.51,1,34.5,3.7,34.5,7.45Zm6.63,7.39a3.71,3.71,0,0,0-3.7,3.7v2.74a3.28,3.28,0,0,1,3.27,3.27V30a1,1,0,0,1-2,0V24.55a1.27,1.27,0,1,0-2.54,0v4l-.28.2L33.61,30.3h0l-5.66,3.91a3.7,3.7,0,0,0-1.63,3.07v9.27a.5.5,0,0,0,.5.5h6.41a.5.5,0,0,0,.5-.5v-5.3l9.48-6.39a3.7,3.7,0,0,0,1.63-3.07V18.54A3.71,3.71,0,0,0,41.13,14.84ZM20.06,34.21l-6-4.16-2.18-1.51v-4a1.27,1.27,0,1,0-2.54,0V30a1,1,0,0,1-2,0V24.55a3.28,3.28,0,0,1,3.27-3.27V18.54a3.7,3.7,0,0,0-7.41,0V31.79A3.7,3.7,0,0,0,4.8,34.86l9.48,6.39v5.3a.5.5,0,0,0,.5.5h6.41a.5.5,0,0,0,.5-.5V37.28A3.7,3.7,0,0,0,20.06,34.21Z"/></svg>