<svg id="Layer_1" data-name="Layer 1" xmlns="http://www.w3.org/2000/svg" viewBox="0 0 48 48"><defs><style>.cls-1{fill:#fff;}</style></defs><title>Situps</title><path class="cls-1" d="M7.21,15.83a6,6,0,1,1,0-11.94,5.91,5.91,0,0,1,4.48,2.07,4.94,4.94,0,0,0,.61,7A5.94,5.94,0,0,1,7.21,15.83Zm38,27.94a3,3,0,0,0,1.25-4.06l-7-13.12a3,3,0,0,0-4.61-.86L22.67,36.26,16.33,22.81l11.8-6.05A3,3,0,0,0,28,11.34L16.73,6.4a3,3,0,1,0-2.41,5.49l5.47,2.4L11.2,18.7l-.1,0a3,3,0,0,0-1.57,1.81h0a3,3,0,0,0-.12.53s0,.08,0,.12a3,3,0,0,0,0,.44c0,.08,0,.17,0,.25a2.85,2.85,0,0,0,.05.31,3,3,0,0,0,.13.37c0,.05,0,.1.05.15l0,.07v0h0l9.21,19.55a3,3,0,0,0,4.68,1L35.92,32.72l5.2,9.8a3,3,0,0,0,4.06,1.25Z"/></svg>