<svg id="Layer_1" data-name="Layer 1" xmlns="http://www.w3.org/2000/svg" viewBox="0 0 48 48"><defs><style>.cls-1{fill:#fff;}</style></defs><title>PivotRating</title><path class="cls-1" d="M6,25.46a17.8,17.8,0,0,0,4.71,12.1L9.37,38.94A19.89,19.89,0,1,1,43.89,25.46a19.72,19.72,0,0,1-5.27,13.47l-.21-.21-1.16-1.16A17.8,17.8,0,0,0,42,25.46,18,18,0,1,0,6,25.46Zm18-1.24a1.24,1.24,0,1,0,1.24,1.24A1.24,1.24,0,0,0,24,24.23Zm11.11,14a16.87,16.87,0,0,1-22.23,0L16.09,35a1,1,0,0,0-1.41-1.41l-2.51,2.51A15.8,15.8,0,0,1,8,25.46a16,16,0,1,1,31.93,0,15.8,15.8,0,0,1-4.14,10.68l-2.51-2.51A1,1,0,1,0,31.91,35Zm.07-12.53a1,1,0,0,0,1,1h1.47a1,1,0,0,0,0-2H36.18A1,1,0,0,0,35.18,25.72ZM23,13.54a1,1,0,0,0,2,0V12.07a1,1,0,0,0-2,0ZM12.82,25.72a1,1,0,0,0-1-1H10.35a1,1,0,0,0,0,2h1.47A1,1,0,0,0,12.82,25.72Zm3.28-9.32-1-1a1,1,0,0,0-1.41,1.41l1,1a1,1,0,0,0,1.41-1.41Zm11.14,9.06a3.2,3.2,0,0,0-.34-1.41l7.43-7.17a1,1,0,1,0-1.39-1.44l-7.43,7.18A3.2,3.2,0,0,0,24,22.23a3.24,3.24,0,1,0,3.24,3.24Z"/></svg>