<svg id="Layer_1" data-name="Layer 1" xmlns="http://www.w3.org/2000/svg" viewBox="0 0 48 48"><defs><style>.cls-1{fill:#fff;}</style></defs><title>Pushups</title><path class="cls-1" d="M48,14.27a4.57,4.57,0,1,1-4.57-4.57A4.57,4.57,0,0,1,48,14.27Zm-9.63,4.54V35.27a3,3,0,1,1-6,0V26.78a38.2,38.2,0,0,1-6.89,2.61L6.15,35.05,6,35.87a3,3,0,0,1-3,2.43,3,3,0,0,1-3-3.61l.52-2.61a3,3,0,0,1,2.11-2.31l16.68-4.89a3,3,0,0,1,2-2c5.32-1.6,7.43-3.12,12.07-6.46l.14-.1.1-.06.23-.13.24-.12.3-.1.26-.08.26,0,.39,0,.25,0,.29,0,.27.07.28.09.3.14.23.13.22.16.23.19.2.22a1.94,1.94,0,0,1,.18.21l.06.1a1.45,1.45,0,0,1,.1.18c.08.14.11.21.14.27a2.08,2.08,0,0,1,.08.23,3.38,3.38,0,0,1,.1.33,2.07,2.07,0,0,1,0,.22c0,.13,0,.23,0,.32S38.37,18.78,38.37,18.81Z"/></svg>