<svg id="Layer_1" data-name="Layer 1" xmlns="http://www.w3.org/2000/svg" viewBox="0 0 48 48"><defs><style>.cls-1{fill:#fff;}</style></defs><title>Custom</title><path class="cls-1" d="M44.23,19.41H41.16l-.23-.73a17.63,17.63,0,0,0-1.21-2.89l-.36-.68,2.18-2.18a2.75,2.75,0,0,0,0-3.9L39,6.44a2.76,2.76,0,0,0-3.9,0L32.88,8.63l-.68-.36a17.72,17.72,0,0,0-2.88-1.2l-.73-.23V3.75A2.76,2.76,0,0,0,25.82,1H22.18a2.76,2.76,0,0,0-2.76,2.75V6.84l-.73.23a17.72,17.72,0,0,0-2.88,1.2l-.68.36L12.93,6.44a2.76,2.76,0,0,0-3.9,0L6.45,9a2.76,2.76,0,0,0,0,3.91l2.18,2.18-.36.68a17.61,17.61,0,0,0-1.21,2.89l-.23.73H3.76A2.76,2.76,0,0,0,1,22.16v3.66a2.76,2.76,0,0,0,2.76,2.75H6.84l.23.73A17.72,17.72,0,0,0,8.27,32.2l.36.68L6.45,35.06a2.76,2.76,0,0,0,0,3.9L9,41.55a2.77,2.77,0,0,0,3.9,0l2.18-2.18.68.36a17.69,17.69,0,0,0,2.89,1.21l.73.23v3.08A2.77,2.77,0,0,0,22.18,47h3.64a2.77,2.77,0,0,0,2.77-2.76V41.16l.73-.23a17.74,17.74,0,0,0,2.89-1.21l.68-.36,2.18,2.18a2.76,2.76,0,0,0,3.9,0L41.55,39a2.76,2.76,0,0,0,0-3.91l-2.18-2.18.36-.68a17.72,17.72,0,0,0,1.21-2.89l.23-.73h3.07A2.76,2.76,0,0,0,47,25.82V22.16A2.76,2.76,0,0,0,44.23,19.41ZM24,32a8,8,0,1,1,8-8A8,8,0,0,1,24,32Z"/></svg>