<svg id="Layer_1" data-name="Layer 1" xmlns="http://www.w3.org/2000/svg" viewBox="0 0 48 48"><defs><style>.cls-1{fill:#fff;}</style></defs><title>WeightLoss</title><path class="cls-1" d="M24,9a4.55,4.55,0,0,0-2.38.69L18.5,6.61A1,1,0,1,0,17.08,8l3.08,3.09a4.57,4.57,0,0,0-.65,1.53H16.19l-3-3.23a11.58,11.58,0,0,1,21.6,0l-3,3.23H28.48A4.6,4.6,0,0,0,24,9ZM42,1H29.12a13.56,13.56,0,0,1,7.78,8.33,1,1,0,0,1-.21,1l-3.7,4a1,1,0,0,1-.73.32H15.75a1,1,0,0,1-.73-.32l-3.7-4a1,1,0,0,1-.21-1A13.56,13.56,0,0,1,18.89,1H6A5,5,0,0,0,1,6V42a5,5,0,0,0,5,5H23V23.58a1,1,0,0,1,2,0V47H42a5,5,0,0,0,5-5V6A5,5,0,0,0,42,1ZM21.61,12.64h4.79a2.59,2.59,0,0,0-4.79,0Z"/></svg>