<svg id="Layer_1" data-name="Layer 1" xmlns="http://www.w3.org/2000/svg" viewBox="0 0 48 48"><defs><style>.cls-1{fill:#fff;}</style></defs><title>Steps</title><path class="cls-1" d="M2.87,24.16a5.22,5.22,0,0,1,2.63-1h0A30.23,30.23,0,0,0,15.93,21,6.93,6.93,0,0,0,17,23a1,1,0,0,0,1.6-1.21,4.9,4.9,0,0,1-.8-1.64c.36-.18.72-.36,1.08-.55l1.1-.64a6.92,6.92,0,0,0,1,1.81,1,1,0,1,0,1.6-1.21,4.89,4.89,0,0,1-.82-1.72c.77-.52,1.46-1,2.07-1.52a6.9,6.9,0,0,0,1.1,2.21,1,1,0,1,0,1.6-1.21,4.89,4.89,0,0,1-1-2.48,21.19,21.19,0,0,0,1.72-1.72,2.78,2.78,0,0,1,5,1,4,4,0,0,1,.16.68,4.61,4.61,0,0,0,3,3.84,5.4,5.4,0,0,0,1.14.25,1,1,0,0,0,0,.16,4.83,4.83,0,0,1-4.82,4.82h0A6.82,6.82,0,0,0,24.83,30c-3.52.19-5.89.44-6,.45a27.61,27.61,0,0,1-5.36.09,16.51,16.51,0,0,1-4.43-.76C3.95,28.07,3.34,25,3.31,24.83A1,1,0,0,0,2.87,24.16ZM38.44,19a6.83,6.83,0,0,1-6.82,6.82h0a4.79,4.79,0,0,0-4.75,4.09A114.89,114.89,0,0,1,38.67,30l.17,0s4.82,1.13,6.74-1.29a1,1,0,0,1,.88-.36c-.12-2.24-.56-7-2.09-9.86a3.44,3.44,0,0,0-.64-2,2.25,2.25,0,0,0-3.88.49l0,.05a2.33,2.33,0,0,1-.8,1.17,3.44,3.44,0,0,1-.67.36A1,1,0,0,1,38.44,19Zm0,13a126.49,126.49,0,0,0-19.3.41,17,17,0,0,1-2.95.19c-1,0-1.95,0-2.81-.07a18.51,18.51,0,0,1-5-.86C3.55,30,2,27.18,1.53,25.85A7,7,0,0,0,1,29.47s.57,3.78,6.56,5.72a18.29,18.29,0,0,0,4.78.81,31.18,31.18,0,0,0,5.7-.11A131.33,131.33,0,0,1,38,35.48s5.52,1.32,7.9-1.65a3.67,3.67,0,0,0,.91-3.52C44.18,33.12,39.21,32.16,38.45,32Z"/></svg>