<svg id="Layer_1" data-name="Layer 1" xmlns="http://www.w3.org/2000/svg" viewBox="0 0 48 48"><defs><style>.cls-1{fill:#fff;}</style></defs><title>Unplug</title><path class="cls-1" d="M41,40.92A24,24,0,0,0,7.08,7L7,7l0,.05A24,24,0,0,0,40.92,41L41,41ZM46,24a21.91,21.91,0,0,1-5.76,14.83L9.18,7.76A22,22,0,0,1,46,24ZM2,24A21.91,21.91,0,0,1,7.76,9.17L38.83,40.24A22,22,0,0,1,2,24Zm18-8.23H36V30.23H34.47Zm6,14.45H12v-14Zm4.52,9.15v2a.5.5,0,0,1-.5.5H18a.5.5,0,0,1-.5-.5v-2a.5.5,0,0,1,.5-.5h1.5v-2.5a.5.5,0,0,1,.5-.5h8a.5.5,0,0,1,.5.5v2.5H30A.5.5,0,0,1,30.5,39.38ZM16,11.77H37a3,3,0,0,1,3,3V31.23A3,3,0,0,1,38.21,34l-1.74-1.74H37a1,1,0,0,0,1-1V14.77a1,1,0,0,0-1-1H18ZM30,34.23H11a3,3,0,0,1-3-3V14.77a2.94,2.94,0,0,1,.68-1.86l1.43,1.43a1,1,0,0,0-.11.43V31.23a1,1,0,0,0,1,1H28Z"/></svg>